<?xml version="1.0" encoding="UTF-8" standalone="no"?>
<!DOCTYPE svg PUBLIC "-//W3C//DTD SVG 1.1//EN" "http://www.w3.org/Graphics/SVG/1.1/DTD/svg11.dtd">
<svg width="100%" height="100%" viewBox="0 0 2550 2325" version="1.1" xmlns="http://www.w3.org/2000/svg" xmlns:xlink="http://www.w3.org/1999/xlink" xml:space="preserve" xmlns:serif="http://www.serif.com/" style="fill-rule:evenodd;clip-rule:evenodd;stroke-linejoin:round;stroke-miterlimit:1.41421;">
    <g transform="matrix(4.16667,0,0,4.16667,0,0)">
        <path d="M161.157,251.273C178.229,277.435 186.834,307.38 189.515,327.692L220.689,327.692C218.077,302.873 208.064,266.509 187.093,234.355C162.153,196.102 129.668,175.871 93.174,175.853L92.953,175.853C65.12,175.853 39.076,188.358 21.476,210.178C2.967,233.115 -4.034,262.779 2.26,291.571L32.501,284.948C28.283,265.671 33.17,244.985 45.562,229.618C57.44,214.913 74.252,206.815 92.963,206.815L93.12,206.815C125.41,206.835 147.943,231.001 161.157,251.273Z" style="fill:rgb(116,19,220);"/>
        <path d="M161.156,251.273C178.228,277.436 186.834,307.381 189.514,327.694L220.688,327.694C218.077,302.875 208.064,266.509 187.094,234.355C162.153,196.103 129.667,175.87 93.174,175.853L92.952,175.853C65.12,175.853 39.076,188.358 21.475,210.178C2.965,233.115 -4.035,262.778 2.259,291.569L32.501,284.949C28.282,265.672 33.17,244.985 45.563,229.619C57.439,214.913 74.252,206.816 92.962,206.816L93.119,206.816C125.411,206.836 147.945,231.002 161.156,251.273Z" style="fill:rgb(116,19,220);fill-rule:nonzero;"/>
        <path d="M386.173,468.176C374.053,451.403 365.22,431.324 361.322,412.006L329.864,412.006C332.28,427.088 338.689,451.993 355.573,478.26C344.993,495.977 326.002,513.459 305.919,523.919C305.909,523.914 305.898,523.906 305.887,523.901C305.876,523.906 305.866,523.914 305.854,523.919C285.772,513.459 266.781,495.977 256.202,478.26C273.086,451.993 279.495,427.088 281.911,412.006L250.452,412.006C246.554,431.324 237.722,451.403 225.602,468.176L220.336,475.491L224.094,483.695C237.236,512.372 267.588,541.128 299.619,555.246L305.843,558L305.887,557.98L305.932,558L312.156,555.246C344.186,541.128 374.539,512.372 387.681,483.695L391.438,475.491L386.173,468.176Z" style="fill:rgb(116,19,220);"/>
        <path d="M386.173,468.176C374.051,451.401 365.22,431.324 361.322,412.006L329.864,412.006C332.281,427.088 338.688,451.995 355.573,478.26C344.994,495.978 326.002,513.459 305.919,523.916C305.91,523.912 305.899,523.906 305.886,523.899C305.875,523.906 305.865,523.912 305.855,523.916C285.772,513.459 266.781,495.978 256.202,478.26C273.086,451.995 279.494,427.088 281.911,412.006L250.453,412.006C246.555,431.324 237.723,451.401 225.601,468.176L220.337,475.491L224.092,483.696C237.235,512.37 267.586,541.128 299.618,555.247L305.841,557.999L305.886,557.979L305.93,557.999L312.157,555.247C344.184,541.128 374.54,512.37 387.679,483.696L391.438,475.491L386.173,468.176Z" style="fill:rgb(116,19,220);fill-rule:nonzero;"/>
        <path d="M450.618,251.273C433.545,277.435 424.941,307.38 422.259,327.692L391.085,327.692C393.698,302.873 403.711,266.509 424.681,234.355C449.622,196.102 482.106,175.871 518.599,175.853L518.822,175.853C546.654,175.853 572.698,188.358 590.299,210.178C608.807,233.115 615.808,262.779 609.513,291.571L579.274,284.948C583.491,265.671 578.604,244.985 566.211,229.618C554.333,214.913 537.522,206.815 518.81,206.815L518.654,206.815C486.365,206.835 463.831,231.001 450.618,251.273Z" style="fill:rgb(116,19,220);"/>
        <path d="M450.619,251.273C433.546,277.436 424.94,307.381 422.26,327.694L391.086,327.694C393.698,302.875 403.71,266.509 424.681,234.355C449.622,196.103 482.107,175.87 518.599,175.853L518.822,175.853C546.655,175.853 572.698,188.358 590.299,210.178C608.805,233.115 615.807,262.778 609.515,291.569L579.273,284.949C583.492,265.672 578.604,244.985 566.211,229.619C554.335,214.913 537.523,206.816 518.812,206.816L518.655,206.816C486.364,206.836 463.83,231.002 450.619,251.273Z" style="fill:rgb(116,19,220);fill-rule:nonzero;"/>
        <path d="M251.78,327.692L282.953,327.692C279.064,291.776 264.976,260.481 252.486,232.759C240.018,205.103 228.248,178.969 228.416,152.928C228.676,122.982 245.752,92.455 274.104,71.229C279.072,67.489 293.194,56.651 305.887,44.996C318.581,56.651 332.702,67.489 337.669,71.229C366.023,92.455 383.098,122.982 383.359,152.928C383.527,178.969 371.756,205.103 359.289,232.759C346.798,260.481 332.71,291.776 328.822,327.692L359.994,327.692C363.848,298.033 375.877,271.346 387.528,245.476C401.411,214.653 414.527,185.535 414.327,152.694C413.967,113.11 392.26,73.419 356.25,46.465C352.002,43.253 329.908,26.417 317.208,12.74L305.887,0.531L294.567,12.74C281.866,26.417 259.772,43.253 255.525,46.465C219.514,73.419 197.808,113.11 197.447,152.694C197.248,185.535 210.363,214.653 224.247,245.476C235.897,271.346 247.927,298.033 251.78,327.692Z" style="fill:rgb(116,19,220);"/>
        <path d="M251.781,327.694L282.952,327.694C279.063,291.778 264.975,260.48 252.488,232.76C240.017,205.102 228.247,178.97 228.417,152.926C228.677,122.981 245.752,92.455 274.104,71.229C279.07,67.487 293.193,56.652 305.886,44.997C318.582,56.652 332.701,67.487 337.671,71.229C366.022,92.455 383.098,122.981 383.357,152.926C383.528,178.97 371.757,205.102 359.287,232.76C346.799,260.48 332.71,291.778 328.823,327.694L359.994,327.694C363.848,298.034 375.877,271.346 387.529,245.476C401.41,214.654 414.528,185.534 414.327,152.694C413.968,113.108 392.26,73.42 356.249,46.465C352.002,43.253 329.908,26.416 317.209,12.741L305.886,0.533L294.565,12.741C281.866,26.416 259.772,43.253 255.526,46.465C219.514,73.42 197.806,113.108 197.448,152.694C197.246,185.534 210.362,214.654 224.246,245.476C235.897,271.346 247.927,298.034 251.781,327.694Z" style="fill:rgb(116,19,220);fill-rule:nonzero;"/>
        <rect x="129.032" y="355.008" width="353.71" height="29.677" style="fill:rgb(116,19,220);"/>
        <rect x="129.033" y="355.007" width="353.709" height="29.679" style="fill:rgb(116,19,220);fill-rule:nonzero;"/>
    </g>
</svg>
